HIERARCHY
ROOT RootJoint
{
    OFFSET   0.000000   0.000000   0.000000
    CHANNELS 6 Xposition Yposition Zposition Xrotation Yrotation Zrotation
    JOINT pelvis_lowerback
    {
        OFFSET   0.000000   0.093605   0.000000
        CHANNELS 3 Xrotation Yrotation Zrotation
        JOINT lowerback_torso
        {
            OFFSET   0.000000   0.100000   0.000000
            CHANNELS 3 Xrotation Yrotation Zrotation
            JOINT torso_head
            {
                OFFSET   0.000000   0.282350   0.000000
                CHANNELS 3 Xrotation Yrotation Zrotation
                End Site
                {
                    OFFSET   0.000000   0.192650   0.000000
                }
            }
            JOINT rTorso_Clavicle
            {
                OFFSET  -0.001000   0.157500   0.000000
                CHANNELS 3 Xrotation Yrotation Zrotation
                JOINT rShoulder
                {
                    OFFSET  -0.117647   0.000000   0.000000
                    CHANNELS 3 Xrotation Yrotation Zrotation
                    JOINT rElbow
                    {
                        OFFSET  -0.245000   0.000000   0.000000
                        CHANNELS 3 Xrotation Yrotation Zrotation
                        JOINT rWrist
                        {
                            OFFSET  -0.240000   0.000000   0.000000
                            CHANNELS 3 Xrotation Yrotation Zrotation
                            End Site
                            {
                                OFFSET  -0.116353  -0.002500   0.000000
                            }
                        }
                    }
                }
            }
            JOINT lTorso_Clavicle
            {
                OFFSET   0.001000   0.157500   0.000000
                CHANNELS 3 Xrotation Yrotation Zrotation
                JOINT lShoulder
                {
                    OFFSET   0.117647   0.000000   0.000000
                    CHANNELS 3 Xrotation Yrotation Zrotation
                    JOINT lElbow
                    {
                        OFFSET   0.245000   0.000000   0.000000
                        CHANNELS 3 Xrotation Yrotation Zrotation
                        JOINT lWrist
                        {
                            OFFSET   0.240000   0.000000   0.000000
                            CHANNELS 3 Xrotation Yrotation Zrotation
                            End Site
                            {
                                OFFSET   0.116353  -0.002500   0.000000
                            }
                        }
                    }
                }
            }
        }
    }
    JOINT rHip
    {
        OFFSET  -0.100000  -0.051395   0.000000
        CHANNELS 3 Xrotation Yrotation Zrotation
        JOINT rKnee
        {
            OFFSET   0.000000  -0.410000   0.000000
            CHANNELS 3 Xrotation Yrotation Zrotation
            JOINT rAnkle
            {
                OFFSET   0.000000  -0.390000   0.000000
                CHANNELS 3 Xrotation Yrotation Zrotation
                JOINT rToeJoint
                {
                    OFFSET   0.000000  -0.050000   0.130000
                    CHANNELS 3 Xrotation Yrotation Zrotation
                    End Site
                    {
                        OFFSET  -0.010000   0.002000   0.060000
                    }
                }
            }
        }
    }
    JOINT lHip
    {
        OFFSET   0.100000  -0.051395   0.000000
        CHANNELS 3 Xrotation Yrotation Zrotation
        JOINT lKnee
        {
            OFFSET   0.000000  -0.410000   0.000000
            CHANNELS 3 Xrotation Yrotation Zrotation
            JOINT lAnkle
            {
                OFFSET   0.000000  -0.390000   0.000000
                CHANNELS 3 Xrotation Yrotation Zrotation
                JOINT lToeJoint
                {
                    OFFSET   0.000000  -0.050000   0.130000
                    CHANNELS 3 Xrotation Yrotation Zrotation
                    End Site
                    {
                        OFFSET   0.010000   0.002000   0.060000
                    }
                }
            }
        }
    }
}
MOTION
Frames: 10
Frame Time:   0.008333
 -2.376719   0.925631   3.975860   0.000000   0.000000   0.000000   0.000000   0.000000   0.000000   0.000000   0.000000   0.000000   0.000000   0.000000   0.000000   0.000000   0.000000   0.000000   0.000000   0.000000   0.000000   0.000000   0.000000   0.000000   0.000000   0.000000   0.000000   0.000000   0.000000   0.000000   0.000000   0.000000   0.000000   0.000000   0.000000   0.000000   0.000000   0.000000   0.000000   0.000000   0.000000   0.000000   0.000000   0.000000   0.000000   0.000000   0.000000   0.000000   0.000000   0.000000   0.000000   0.000000   0.000000   0.000000   0.000000   0.000000   0.000000   0.000000   0.000000   0.000000   0.000000   0.000000   0.000000
 -2.376276   0.925321   3.973777  -0.580749  -0.188319   0.188079   1.094535   0.167650  -0.106156   0.032789  -0.146061  -0.113082  -0.090951   0.191973   0.037255  -0.095321  -0.378396  -0.508777   0.137763   0.436662   2.052845   0.046641   3.477518  -0.019362  -0.165593  -1.906670  -1.154263  -0.447318   0.274868   0.443519  -1.066555   0.465225  -1.665628   0.038027  -3.557079  -0.029159  -0.165216   1.446727   1.331679  -0.402244  -0.022430  -0.543174   2.608849   0.007959  -0.005080  -1.693626  -0.495986   0.068304   0.165485   0.000416  -0.001020  -0.723779   0.530926  -0.012540   3.480009  -0.004822   0.010542  -2.321533   0.229671  -0.121354   0.063552  -0.000030   0.000315
 -2.375668   0.924773   3.971229  -1.362981  -0.501868   0.378105   2.280290   0.391695  -0.195631   0.286483  -0.219062  -0.220636  -0.102007   0.372023   0.064178  -0.179589  -0.503637  -0.612138   0.234103   1.093670   4.289747   0.108961   7.125043  -0.039701  -0.308094  -2.695893  -1.760042  -0.871255   0.393919   0.508449  -2.068182   0.766778  -3.509927   0.083945  -7.251491  -0.047294  -0.356272   1.904438   2.160957  -0.674448  -0.061286  -1.352787   5.363864   0.020315  -0.014270  -3.259176  -0.973226   0.116053   0.314743   0.001068  -0.001925  -1.393038   1.064145   0.174147   7.193187  -0.014007   0.016948  -4.471865   0.459625  -0.220573   0.100580  -0.000106   0.000399
 -2.374962   0.923767   3.968427  -2.168787  -0.865774   0.543776   3.444159   0.643861  -0.261464   0.598710  -0.239763  -0.303551  -0.098739   0.539131   0.087629  -0.256483  -0.437133  -0.442357   0.284862   1.854920   6.577187   0.174785  10.833877  -0.057311  -0.432449  -2.978099  -1.921645  -1.263523   0.375872   0.315629  -2.998835   0.973181  -5.417723   0.128770 -10.992935  -0.058505  -0.534091   1.965873   2.555771  -0.895731  -0.107215  -2.350273   7.981102   0.033191  -0.024423  -4.715532  -1.425137   0.146317   0.464339   0.001867  -0.002744  -2.052041   1.563396   0.552894  10.714901  -0.024978   0.021221  -6.472735   0.680964  -0.302089   0.151034  -0.000270   0.000490
 -2.374196   0.922160   3.965488  -2.954074  -1.231004   0.683773   4.569752   0.905675  -0.306299   0.923500  -0.230337  -0.360239  -0.098430   0.694773   0.109673  -0.327831  -0.245055  -0.096241   0.292906   2.664789   8.852050   0.237765  14.579355  -0.072318  -0.546385  -2.998550  -1.769343  -1.627504   0.262759  -0.038426  -3.862175   1.122094  -7.326935   0.168101 -14.762430  -0.064938  -0.702112   1.837456   2.644454  -1.089058  -0.152799  -3.490346  10.426986   0.044856  -0.033811  -6.074596  -1.851281   0.161545   0.599896   0.002605  -0.003312  -2.721275   2.022840   1.092098  13.993920  -0.035783   0.025466  -8.340390   0.892659  -0.369004   0.193086  -0.000418   0.000529
 -2.373398   0.919851   3.962506  -3.707568  -1.572665   0.800928   5.653011   1.167455  -0.332505   1.249906  -0.203582  -0.391897  -0.102761   0.839958   0.130635  -0.394815   0.025771   0.360407   0.263291   3.488135  11.075306   0.294643  18.348199  -0.085329  -0.654871  -2.871264  -1.401980  -1.965993   0.087906  -0.486632  -4.661968   1.237427  -9.196417   0.199898 -18.549825  -0.067951  -0.863171   1.606634   2.528232  -1.258731  -0.192656  -4.737063  12.707973   0.054590  -0.041741  -7.343709  -2.251835   0.164129   0.721030   0.003208  -0.003642  -3.402311   2.439546   1.760090  17.036496  -0.045174   0.030250 -10.084707   1.094260  -0.423639   0.225053  -0.000517   0.000531
 -2.372628   0.916812   3.959494  -4.434342  -1.850157   0.905198   6.706378   1.412586  -0.350266   1.579383  -0.175599  -0.400888  -0.111209   0.975152   0.150824  -0.457885   0.342202   0.887110   0.201889   4.301408  13.225643   0.344277  22.131700  -0.097336  -0.761533  -2.663176  -0.890355  -2.282319  -0.130600  -0.982498  -5.402990   1.330319 -10.998818   0.223828 -22.349734  -0.068284  -1.018856   1.316744   2.284284  -1.432824  -0.188310  -5.999573  14.752187   0.060525  -0.046082  -8.593851  -2.574251   0.187698   0.009250  -0.004030   0.001985  -4.094735   2.810479   2.525556  19.859356  -0.052420   0.036101 -11.713559   1.285182  -0.468326   0.250778  -0.000578   0.000524
 -2.372294   0.912939   3.956124  -4.814869  -2.202716   0.895851   7.466216   1.683974  -0.350500   1.781918  -0.073002  -0.332321  -0.136113   1.108869   0.223885  -0.541754   0.543893   1.036465   0.392613   5.361242  15.356802   0.377976  25.924276  -0.116788  -0.891494  -2.445874   0.176218  -2.583250  -0.279227  -1.173273  -6.592318   1.475088 -12.836349   0.225391 -26.147331  -0.088861  -1.207138   1.026096   1.646465  -2.309771  -0.227183  -6.841717  16.765770   0.058635  -0.051793  -9.935213  -2.699402   0.419316   0.117464  -0.002721   0.000900  -5.044378   3.440708   3.564387  22.099369  -0.055286   0.043907 -13.028886   1.712064  -0.593590   0.423480  -0.001581   0.001799
 -2.372066   0.909844   3.953028  -5.293844  -2.469884   0.785953   8.272308   1.925569  -0.271478   2.014136   0.026296  -0.230539  -0.162988   1.232755   0.301377  -0.622375   0.768839   1.161690   0.532890   6.382732  17.317540   0.402980  29.724110  -0.133568  -1.009595  -2.194787   1.207778  -2.869030  -0.443186  -1.372929  -7.701031   1.630989 -14.543745   0.219374 -29.948417  -0.104950  -1.402571   0.731576   1.082455  -3.331616  -0.446810  -7.059376  19.245161   0.046786  -0.059380 -10.821672  -2.864963   0.809662   0.193994  -0.002279   0.000145  -5.841363   4.004090   4.736180  24.082434  -0.055522   0.050002 -14.253234   2.119475  -0.698281   0.628362  -0.002634   0.003171
 -2.371457   0.906910   3.950362  -5.778862  -2.579099   0.835023   9.013868   2.106343  -0.271637   2.243807   0.082821  -0.175788  -0.182399   1.346796   0.373022  -0.692486   0.976733   1.228260   0.636929   7.340435  19.123818   0.419086  33.526019  -0.146930  -1.124272  -1.943283   2.194026  -3.133377  -0.622827  -1.523943  -8.727722   1.788385 -16.120751   0.204392 -33.754288  -0.119943  -1.591056   0.428940   0.533137  -4.221268  -0.623633  -7.312328  21.598826   0.035229  -0.059313 -11.729292  -3.033987   1.030087   0.279869  -0.001908  -0.000373  -6.608337   4.517637   5.728285  25.918226  -0.053267   0.055700 -15.397853   2.500727  -0.788161   0.808211  -0.003244   0.004213
